<svg xmlns="http://www.w3.org/2000/svg" viewBox="0 0 1440 320"><path fill="#273036" fill-opacity="1" d="M0,256L26.7,218.7C53.3,181,107,107,160,74.7C213.3,43,267,53,320,85.3C373.3,117,427,171,480,170.7C533.3,171,587,117,640,90.7C693.3,64,747,64,800,90.7C853.3,117,907,171,960,208C1013.3,245,1067,267,1120,266.7C1173.3,267,1227,245,1280,208C1333.3,171,1387,117,1413,90.7L1440,64L1440,0L1413.3,0C1386.7,0,1333,0,1280,0C1226.7,0,1173,0,1120,0C1066.7,0,1013,0,960,0C906.7,0,853,0,800,0C746.7,0,693,0,640,0C586.7,0,533,0,480,0C426.7,0,373,0,320,0C266.7,0,213,0,160,0C106.7,0,53,0,27,0L0,0Z"></path></svg>